<svg width="16" height="16" viewBox="0 0 16 16" fill="none" xmlns="http://www.w3.org/2000/svg">
<path opacity="0.25" d="M15.384 9.896C15.2287 9.656 15.0079 9.416 14.7218 9.264C14.4929 9.152 14.3457 8.968 14.2149 8.752C13.7979 8.064 14.0432 7.16 14.7381 6.752C15.5557 6.296 15.8173 5.28 15.3431 4.488L14.7954 3.544C14.3293 2.752 13.3074 2.472 12.498 2.936C11.7785 3.32 10.8547 3.064 10.4377 2.384C10.3069 2.16 10.2333 1.92 10.2497 1.68C10.2742 1.368 10.1761 1.072 10.029 0.832C9.72645 0.336 9.17868 0 8.57368 0H7.42092C6.82409 0.016 6.27632 0.336 5.97382 0.832C5.81849 1.072 5.72855 1.368 5.7449 1.68C5.76126 1.92 5.68768 2.16 5.55687 2.384C5.13991 3.064 4.21606 3.32 3.50477 2.936C2.68721 2.472 1.67343 2.752 1.19924 3.544L0.65147 4.488C0.185457 5.28 0.447078 6.296 1.25647 6.752C1.9514 7.16 2.19667 8.064 1.78789 8.752C1.6489 8.968 1.50174 9.152 1.27282 9.264C0.994847 9.416 0.749577 9.656 0.618767 9.896C0.316267 10.392 0.332619 11.016 0.635118 11.536L1.19924 12.496C1.50174 13.008 2.06586 13.328 2.65451 13.328C2.93248 13.328 3.2595 13.248 3.52113 13.088C3.72552 12.952 3.97079 12.904 4.24058 12.904C5.04997 12.904 5.72855 13.568 5.7449 14.36C5.7449 15.28 6.49707 16 7.44544 16H8.55733C9.49753 16 10.2497 15.28 10.2497 14.36C10.2742 13.568 10.9528 12.904 11.7622 12.904C12.0238 12.904 12.2691 12.952 12.4816 13.088C12.7433 13.248 13.0621 13.328 13.3483 13.328C13.9287 13.328 14.4929 13.008 14.7954 12.496L15.3677 11.536C15.662 11 15.6865 10.392 15.384 9.896Z" fill="#1A1926"/>
</svg>
