<svg width="16" height="16" viewBox="0 0 16 16" fill="none" xmlns="http://www.w3.org/2000/svg">
<path fill-rule="evenodd" clip-rule="evenodd" d="M15.008 2.40706C15.3985 2.01653 15.3985 1.38337 15.008 0.992844C14.6175 0.60232 13.9843 0.60232 13.5938 0.992844L8.00041 6.5862L2.40706 0.992844C2.01653 0.60232 1.38337 0.60232 0.992844 0.992844C0.60232 1.38337 0.60232 2.01653 0.992844 2.40706L6.5862 8.00041L0.992844 13.5938C0.60232 13.9843 0.60232 14.6175 0.992844 15.008C1.38337 15.3985 2.01653 15.3985 2.40706 15.008L8.00041 9.41463L13.5938 15.008C13.9843 15.3985 14.6175 15.3985 15.008 15.008C15.3985 14.6175 15.3985 13.9843 15.008 13.5938L9.41463 8.00041L15.008 2.40706Z" fill="#1A1926"/>
</svg>
